<?xml version="1.0" standalone="no"?>
<!DOCTYPE svg PUBLIC "-//W3C//DTD SVG 20010904//EN"
 "http://www.w3.org/TR/2001/REC-SVG-20010904/DTD/svg10.dtd">
<svg version="1.0" xmlns="http://www.w3.org/2000/svg"
 width="500.000000pt" height="500.000000pt" viewBox="0 0 500.000000 500.000000"
 preserveAspectRatio="xMidYMid meet">
<metadata>
Created by potrace 1.14, written by Peter Selinger 2001-2017
</metadata>
<g transform="translate(0.000000,500.000000) scale(0.100000,-0.100000)"
fill="#000000" stroke="none">
<path d="M4925 4826 c-17 -12 -20 -27 -19 -96 l0 -81 -101 7 c-55 3 -266 6
-470 4 -203 -1 -719 -2 -1146 -3 l-776 -1 -54 -90 c-30 -50 -65 -111 -78 -136
-13 -25 -26 -47 -28 -50 -8 -9 -393 -8 -393 2 0 5 -24 48 -52 96 -29 48 -64
108 -77 133 l-24 45 -206 -1 c-194 -1 -241 -6 -241 -25 0 -5 -23 -48 -51 -97
-28 -48 -61 -104 -71 -123 -11 -19 -31 -54 -45 -77 -21 -36 -22 -45 -12 -65 7
-13 54 -95 105 -184 l94 -161 214 0 214 0 16 31 c27 53 131 231 143 246 7 8
357 7 375 -2 9 -4 38 -45 63 -91 25 -45 57 -100 71 -122 13 -22 27 -45 30 -51
3 -8 355 -11 1248 -10 l1242 1 -2 -80 c-1 -44 -2 -82 -3 -85 0 -3 -103 -5
-228 -5 -126 0 -236 -2 -246 -5 -11 -3 -53 -66 -96 -141 l-78 -134 -192 0
-193 0 -77 132 c-42 73 -80 135 -84 139 -10 10 -417 8 -427 -2 -8 -8 -118
-196 -181 -310 l-28 -50 55 -95 c31 -51 68 -116 83 -144 16 -27 38 -67 51 -87
l22 -38 211 0 212 0 27 43 c14 23 38 64 53 90 15 27 39 70 54 95 l27 47 194 0
195 0 67 -115 c38 -63 73 -125 78 -137 9 -23 10 -23 254 -23 l244 0 -1 -85 -1
-85 -875 0 -876 0 -80 -140 c-59 -104 -85 -140 -100 -141 -92 -4 -355 0 -364
5 -7 5 -16 18 -22 29 -5 12 -37 72 -73 132 l-63 110 -1030 3 -1030 2 -93 -162
c-51 -90 -99 -172 -106 -183 -12 -18 -2 -40 94 -205 l107 -185 1020 0 c561 -1
1026 1 1033 3 6 2 12 8 12 13 0 7 39 76 90 159 5 8 19 33 31 55 11 22 26 43
32 47 6 3 93 6 194 6 l184 0 23 -36 c12 -21 34 -57 48 -82 35 -63 89 -154 95
-160 2 -2 394 -5 871 -5 l867 0 1 -82 c1 -83 1 -83 -25 -83 -14 -1 -529 -1
-1143 -1 l-1117 -1 -18 -32 c-10 -18 -47 -82 -81 -142 l-64 -110 -190 1 -190
0 -24 40 c-13 22 -30 51 -37 65 -7 14 -33 59 -57 101 l-45 77 -212 1 -212 1
-53 -93 c-29 -50 -57 -100 -63 -109 -5 -9 -29 -51 -53 -92 l-43 -76 105 -183
105 -182 211 -1 211 -1 18 26 c10 14 35 58 56 96 21 39 51 90 66 115 l28 45
188 1 188 0 26 -40 c14 -23 40 -67 58 -100 18 -32 45 -77 60 -100 l26 -43
1110 0 c611 -1 1122 -2 1138 -2 l27 -1 0 -79 c0 -54 -4 -80 -12 -83 -7 -2
-275 -4 -596 -4 l-583 1 -81 -142 -82 -143 -121 1 c-66 0 -125 0 -130 -1 -6
-2 -37 -2 -70 -1 -49 1 -62 5 -70 21 -20 40 -129 225 -136 230 -3 3 -8 12 -11
20 -4 13 -78 15 -580 15 l-575 0 -69 -119 c-38 -66 -82 -143 -97 -170 -16 -28
-33 -56 -39 -63 -7 -9 14 -54 73 -155 45 -79 88 -152 94 -163 6 -11 17 -30 25
-42 l15 -23 572 0 572 0 20 29 c12 16 21 31 21 34 0 17 124 213 137 217 15 5
286 5 355 1 9 -1 31 -27 50 -58 18 -32 38 -65 43 -75 6 -9 20 -36 33 -60 13
-23 31 -54 41 -67 l18 -23 586 -2 587 -1 0 -56 c0 -41 5 -60 18 -71 29 -26 70
-9 73 32 1 22 6 452 14 1150 3 333 8 787 10 1010 2 223 7 675 10 1005 3 330 8
788 10 1017 l4 417 -22 16 c-26 18 -28 18 -52 1z"/>
<path d="M2036 3705 c-49 -80 -51 -84 -121 -204 l-66 -115 104 -180 104 -181
217 0 217 0 31 55 c16 30 42 75 57 100 15 25 30 52 34 60 7 14 27 48 67 115
l18 30 -34 58 c-19 32 -34 62 -34 67 0 6 -4 10 -10 10 -5 0 -10 4 -10 10 0 5
-14 33 -31 62 -18 29 -43 73 -57 98 -13 25 -28 49 -32 53 -4 5 -101 9 -215 10
l-208 2 -31 -50z"/>
<path d="M612 1040 c-8 -6 -6 -3 -107 -181 -40 -69 -80 -137 -89 -152 -18 -26
-17 -27 41 -127 32 -56 66 -115 76 -133 10 -18 31 -54 47 -82 l28 -50 215 -3
214 -2 79 137 c43 76 83 146 89 155 47 77 47 69 -2 155 -25 43 -57 98 -71 123
-14 25 -42 72 -62 105 l-37 60 -207 0 c-114 0 -211 -2 -214 -5z"/>
</g>
</svg>
